<svg id="svg" version="1.1" xmlns="http://www.w3.org/2000/svg" xmlns:xlink="http://www.w3.org/1999/xlink" width="400" height="373.37278106508876" viewBox="0, 0, 400,373.37278106508876"><g id="svgg"><path id="path0" d="M195.663 87.187 C 195.572 87.279,194.242 87.529,192.707 87.744 C 188.957 88.268,182.370 89.729,180.952 90.350 C 180.542 90.530,179.365 90.960,178.338 91.306 C 177.311 91.652,176.134 92.081,175.724 92.259 C 175.313 92.438,174.052 92.965,172.923 93.431 C 162.704 97.647,150.736 106.891,143.988 115.780 C 142.974 117.115,142.044 118.291,141.921 118.394 C 140.409 119.657,132.213 135.080,132.213 136.663 C 132.213 136.891,132.060 137.370,131.873 137.727 C 131.340 138.742,130.477 141.493,129.795 144.351 C 129.452 145.789,129.019 147.554,128.832 148.273 C 128.645 148.992,128.321 151.008,128.113 152.754 C 127.904 154.500,127.641 156.601,127.528 157.423 C 127.326 158.888,127.361 158.942,129.301 160.220 C 130.389 160.936,131.363 161.609,131.466 161.714 C 135.416 165.756,144.545 165.029,151.981 160.079 C 153.713 158.926,155.352 157.983,155.623 157.983 C 155.894 157.983,156.116 157.855,156.116 157.697 C 156.116 157.189,159.579 156.170,162.959 155.685 C 169.232 154.784,175.378 156.589,181.155 161.030 C 186.899 165.448,194.477 165.451,201.120 161.040 C 206.635 157.378,209.112 156.281,213.142 155.715 C 218.321 154.987,223.842 155.956,227.537 158.242 C 228.303 158.716,229.025 159.104,229.140 159.104 C 229.256 159.104,230.226 159.752,231.295 160.545 C 233.022 161.824,233.774 162.271,236.555 163.672 C 240.343 165.579,247.912 164.016,252.794 160.319 C 259.784 155.025,269.328 153.972,276.980 157.648 C 278.646 158.449,280.081 159.104,280.168 159.104 C 280.624 159.104,279.031 148.267,278.026 144.538 C 272.297 123.263,259.662 106.986,240.570 96.288 C 238.440 95.095,236.624 94.118,236.535 94.118 C 236.387 94.118,233.938 93.076,232.120 92.239 C 230.708 91.590,224.452 89.636,223.785 89.636 C 223.419 89.636,222.959 89.498,222.764 89.329 C 222.450 89.058,220.783 88.726,212.916 87.370 C 210.915 87.025,195.984 86.867,195.663 87.187 M162.077 162.787 C 160.301 163.166,157.352 164.597,155.698 165.882 C 148.283 171.642,138.474 172.881,130.615 169.050 L 127.272 167.419 127.474 168.957 C 127.586 169.803,127.860 172.007,128.084 173.856 C 128.309 175.705,128.645 177.806,128.832 178.525 C 129.019 179.244,129.452 181.008,129.795 182.446 C 130.477 185.305,131.340 188.056,131.873 189.071 C 132.060 189.427,132.213 189.906,132.213 190.135 C 132.213 190.584,132.597 191.479,135.002 196.639 C 136.338 199.505,141.235 207.830,141.921 208.403 C 142.044 208.506,142.969 209.683,143.975 211.018 C 150.605 219.812,164.185 230.182,173.639 233.671 C 174.580 234.018,175.518 234.417,175.724 234.557 C 177.634 235.861,186.994 238.263,194.024 239.253 C 219.124 242.788,245.163 232.719,262.218 212.885 C 272.079 201.418,278.877 185.342,279.935 170.991 L 280.174 167.752 279.116 167.078 C 278.534 166.707,277.974 166.316,277.871 166.208 C 274.888 163.088,265.933 161.498,261.521 163.306 C 260.643 163.666,258.036 165.208,255.728 166.731 C 253.421 168.255,251.030 169.623,250.416 169.770 C 249.802 169.917,249.125 170.174,248.911 170.341 C 248.196 170.897,241.640 171.346,238.827 171.030 C 234.556 170.551,231.912 169.498,227.917 166.685 C 222.916 163.163,221.487 162.666,216.355 162.663 C 213.220 162.660,211.650 162.804,211.331 163.122 C 211.077 163.377,210.634 163.585,210.347 163.585 C 210.061 163.585,208.287 164.618,206.407 165.879 C 201.969 168.857,200.030 169.935,199.110 169.935 C 198.699 169.935,198.272 170.083,198.159 170.265 C 197.562 171.232,188.172 171.401,184.769 170.506 C 182.087 169.801,180.376 168.902,176.006 165.907 C 171.651 162.921,166.673 161.805,162.077 162.787 M226.628 277.218 L 226.517 279.552 224.930 279.667 L 223.343 279.782 223.343 294.326 L 223.343 308.870 225.023 308.870 L 226.704 308.870 226.704 311.485 L 226.704 314.099 227.994 314.099 L 229.284 314.099 229.395 311.578 L 229.505 309.057 231.092 308.942 L 232.680 308.827 232.680 311.463 L 232.680 314.099 233.970 314.099 L 235.260 314.099 235.370 311.578 L 235.481 309.057 238.350 308.097 C 242.919 306.568,244.288 304.856,244.302 300.659 C 244.311 297.566,242.450 294.363,240.616 294.316 C 239.870 294.297,240.067 293.820,241.302 292.654 C 245.899 288.315,243.214 280.226,237.143 280.127 C 235.701 280.104,235.294 279.427,235.294 277.049 L 235.294 274.883 234.005 274.883 L 232.715 274.883 232.604 277.218 L 232.493 279.552 230.999 279.552 L 229.505 279.552 229.394 277.218 L 229.283 274.883 228.011 274.883 L 226.740 274.883 226.628 277.218 M103.626 279.874 C 93.473 282.166,94.527 292.198,105.322 296.007 C 111.168 298.070,112.161 298.877,111.975 301.412 C 111.646 305.903,102.721 305.857,101.399 301.358 L 101.027 300.093 98.413 300.093 L 95.798 300.093 95.921 301.322 C 96.761 309.703,113.405 312.042,116.993 304.282 C 119.440 298.992,116.139 294.556,107.647 291.720 C 103.478 290.328,102.334 289.349,102.334 287.170 C 102.334 282.817,111.055 282.540,111.920 286.866 C 112.203 288.279,117.647 288.634,117.647 287.239 C 117.647 282.005,110.596 278.301,103.626 279.874 M136.873 281.497 C 136.519 282.481,135.999 283.816,135.715 284.464 C 135.432 285.111,135.201 285.827,135.201 286.056 C 135.201 286.284,135.050 286.763,134.866 287.120 C 134.440 287.943,133.888 289.393,131.277 296.545 C 130.115 299.729,129.009 302.626,128.821 302.983 C 128.632 303.339,128.478 303.818,128.478 304.047 C 128.478 304.275,128.250 304.992,127.970 305.639 C 127.691 306.286,127.274 307.278,127.045 307.843 L 126.627 308.870 129.556 308.870 L 132.485 308.870 133.089 307.283 C 133.421 306.410,133.802 305.143,133.936 304.469 C 134.283 302.719,134.939 302.521,140.396 302.521 C 145.998 302.521,145.719 302.351,146.999 306.536 L 147.712 308.870 150.614 308.870 L 153.516 308.870 153.264 307.868 C 153.126 307.317,152.787 306.434,152.512 305.907 C 152.237 305.380,152.011 304.664,152.010 304.317 C 152.009 303.970,151.852 303.590,151.663 303.472 C 151.473 303.355,151.200 302.721,151.055 302.062 C 150.910 301.404,150.663 300.607,150.504 300.292 C 150.153 299.592,149.879 298.877,145.923 288.329 L 142.771 279.925 140.143 279.816 L 137.515 279.707 136.873 281.497 M163.834 279.988 C 163.697 280.124,163.585 286.679,163.585 294.553 L 163.585 308.870 166.377 308.870 L 169.169 308.870 169.272 302.801 L 169.374 296.732 175.070 296.629 L 180.766 296.526 180.766 294.481 L 180.766 292.437 175.567 292.437 C 168.701 292.437,169.188 292.765,169.188 288.142 C 169.188 283.492,168.599 283.847,176.314 283.847 L 182.260 283.847 182.260 281.793 L 182.260 279.739 173.171 279.739 C 168.173 279.739,163.971 279.851,163.834 279.988 M193.091 294.304 L 193.091 308.870 202.614 308.870 L 212.138 308.870 212.138 306.629 L 212.138 304.388 205.403 304.388 L 198.668 304.388 198.774 300.187 L 198.880 295.985 204.781 295.882 L 210.683 295.779 210.570 293.828 L 210.458 291.877 204.669 291.690 L 198.880 291.503 198.771 287.986 C 198.637 283.604,198.197 283.860,205.882 283.853 L 212.138 283.847 212.138 281.793 L 212.138 279.739 202.614 279.739 L 193.091 279.739 193.091 294.304 M264.615 280.108 C 264.478 280.329,264.224 280.967,264.050 281.525 C 263.607 282.946,261.879 287.617,261.464 288.515 C 261.274 288.926,260.585 290.775,259.933 292.624 C 259.280 294.472,258.616 296.321,258.456 296.732 C 258.296 297.143,257.905 298.151,257.586 298.973 C 257.268 299.795,256.464 301.979,255.800 303.828 C 255.137 305.677,254.453 307.349,254.281 307.544 C 253.401 308.543,254.004 308.870,256.724 308.870 C 259.750 308.870,260.072 308.681,260.509 306.642 C 260.661 305.929,260.959 305.005,261.170 304.587 C 261.381 304.170,261.672 303.576,261.816 303.268 C 262.028 302.816,263.103 302.688,267.369 302.604 L 272.660 302.500 273.326 304.098 C 273.692 304.977,274.219 306.410,274.497 307.283 L 275.003 308.870 277.928 308.870 L 280.853 308.870 280.327 307.470 C 280.038 306.699,278.174 301.699,276.185 296.359 C 274.197 291.018,272.334 286.118,272.046 285.471 C 271.758 284.824,271.522 284.054,271.522 283.759 C 271.522 283.465,271.396 283.099,271.242 282.945 C 271.088 282.791,270.789 282.049,270.577 281.295 L 270.193 279.925 267.528 279.816 C 265.914 279.750,264.765 279.865,264.615 280.108 M289.076 280.134 C 289.076 280.351,290.783 283.839,292.870 287.884 C 299.008 299.780,298.413 298.067,298.413 303.826 L 298.413 308.870 301.214 308.870 L 304.015 308.870 304.015 303.342 L 304.015 297.814 305.926 294.099 C 306.976 292.055,308.993 288.141,310.407 285.400 C 313.542 279.326,313.555 279.739,310.223 279.739 C 307.134 279.739,307.149 279.728,305.904 282.726 C 304.452 286.224,301.465 292.353,301.104 292.576 C 300.762 292.787,299.950 291.350,298.387 287.768 C 297.939 286.741,296.910 284.514,296.100 282.820 L 294.628 279.739 291.852 279.739 C 290.148 279.739,289.076 279.891,289.076 280.134 M234.622 284.262 C 237.027 284.767,237.759 285.362,238.080 287.069 C 238.735 290.563,236.927 292.063,232.062 292.063 L 228.945 292.063 228.945 288.204 C 228.945 283.377,229.284 283.142,234.622 284.262 M141.109 289.098 C 141.410 290.010,141.799 291.092,141.975 291.503 C 142.608 292.987,143.791 297.032,143.791 297.714 C 143.791 298.508,136.981 298.804,136.503 298.032 C 136.278 297.668,136.752 295.703,137.448 294.118 C 137.628 293.707,138.225 291.977,138.774 290.273 C 139.879 286.849,140.299 286.638,141.109 289.098 M267.972 288.049 C 268.102 288.511,268.352 289.225,268.529 289.636 C 269.538 291.976,271.168 297.449,270.993 297.905 C 270.596 298.941,263.896 298.442,263.744 297.365 C 263.676 296.892,263.783 296.303,263.980 296.058 C 264.178 295.812,264.464 295.029,264.617 294.317 C 264.769 293.604,265.029 292.764,265.193 292.449 C 265.357 292.134,265.798 290.828,266.173 289.546 C 266.874 287.145,267.559 286.575,267.972 288.049 M237.187 296.645 C 241.593 299.614,238.664 304.388,232.438 304.388 L 228.945 304.388 228.945 300.093 L 228.945 295.798 232.438 295.798 C 235.449 295.798,236.104 295.915,237.187 296.645 " stroke="none" fill="#0b5bf3" fill-rule="evenodd"></path><path id="path1" d="M0.000 186.741 L 0.000 373.483 200.000 373.483 L 400.000 373.483 400.000 186.741 L 400.000 0.000 200.000 0.000 L 0.000 0.000 0.000 186.741 M212.698 86.684 C 219.032 87.639,223.453 88.527,223.884 88.930 C 224.079 89.113,224.538 89.262,224.903 89.262 C 225.640 89.262,230.638 90.875,232.680 91.772 C 240.815 95.344,246.927 99.017,253.503 104.284 C 261.430 110.633,270.143 122.304,274.493 132.400 C 275.803 135.441,275.897 135.678,276.553 137.628 C 276.899 138.655,277.334 139.832,277.520 140.243 C 278.603 142.639,280.803 154.696,280.841 158.450 C 280.857 160.056,280.137 160.980,279.676 159.944 C 279.479 159.499,276.009 157.786,273.763 157.024 C 271.243 156.169,263.261 156.055,260.878 156.839 C 258.766 157.534,254.621 159.566,253.968 160.226 C 250.561 163.672,243.928 165.615,238.587 164.731 C 236.430 164.374,232.306 162.601,232.306 162.031 C 232.306 161.859,232.054 161.718,231.746 161.718 C 231.438 161.718,231.186 161.577,231.186 161.404 C 231.186 161.232,230.808 160.894,230.345 160.654 C 229.883 160.413,229.001 159.889,228.385 159.490 C 224.579 157.023,221.993 156.327,216.634 156.327 C 210.172 156.327,208.825 156.774,202.054 161.164 C 193.829 166.497,187.168 166.352,179.458 160.673 C 172.631 155.644,164.047 154.761,156.022 158.263 C 155.252 158.599,154.622 158.990,154.622 159.132 C 154.622 159.274,154.328 159.489,153.968 159.609 C 153.172 159.877,152.118 160.557,151.094 161.464 C 148.300 163.941,142.457 165.399,137.871 164.764 C 135.412 164.423,131.092 162.682,131.092 162.031 C 131.092 161.859,130.918 161.718,130.704 161.718 C 130.314 161.718,128.380 160.447,127.432 159.568 C 126.690 158.880,127.278 151.761,128.488 146.779 C 129.464 142.760,130.062 140.577,130.333 140.044 C 130.493 139.729,130.742 138.933,130.887 138.274 C 131.032 137.616,131.305 136.981,131.495 136.864 C 131.684 136.746,131.839 136.392,131.839 136.075 C 131.839 134.904,135.396 127.562,138.144 123.063 C 143.180 114.815,148.600 108.787,157.149 101.926 C 158.448 100.883,162.515 98.226,162.811 98.226 C 162.997 98.226,163.206 98.083,163.274 97.908 C 163.518 97.285,170.195 93.833,175.163 91.760 C 176.627 91.150,181.286 89.576,183.567 88.922 C 185.886 88.257,189.224 87.606,195.145 86.665 C 197.940 86.220,209.711 86.233,212.698 86.684 M169.561 162.244 C 171.611 162.467,172.926 163.101,177.031 165.842 C 186.844 172.396,195.645 172.386,205.407 165.812 C 212.631 160.947,219.196 160.517,225.770 164.477 C 226.797 165.096,227.722 165.700,227.824 165.820 C 228.242 166.307,231.842 168.441,232.246 168.441 C 232.484 168.441,232.680 168.590,232.680 168.773 C 232.680 168.955,233.310 169.222,234.080 169.366 C 234.851 169.510,235.706 169.814,235.981 170.041 C 236.886 170.789,246.375 170.600,248.553 169.791 C 251.883 168.553,253.061 167.912,256.585 165.415 C 260.054 162.957,261.270 162.447,264.426 162.123 C 267.509 161.807,272.536 162.210,273.149 162.822 C 273.363 163.036,273.754 163.212,274.017 163.212 C 274.591 163.212,279.770 166.645,280.471 167.490 C 281.392 168.599,278.776 185.137,277.458 186.536 C 277.275 186.731,277.124 187.267,277.124 187.728 C 277.124 188.188,276.969 188.661,276.779 188.778 C 276.590 188.895,276.316 189.530,276.172 190.188 C 276.027 190.847,275.769 191.643,275.599 191.958 C 274.918 193.218,273.016 197.646,273.016 197.972 C 273.016 198.163,272.866 198.319,272.683 198.319 C 272.500 198.319,272.255 198.697,272.138 199.160 C 271.885 200.165,268.920 205.176,268.474 205.353 C 268.301 205.422,268.161 205.643,268.161 205.845 C 268.161 207.282,257.832 219.025,253.506 222.507 C 250.862 224.635,245.346 228.571,245.009 228.571 C 244.801 228.571,244.631 228.704,244.631 228.867 C 244.631 229.030,244.085 229.431,243.417 229.759 C 242.750 230.086,240.775 231.091,239.029 231.990 C 235.099 234.015,231.360 235.668,230.707 235.668 C 230.436 235.668,230.055 235.802,229.860 235.966 C 229.289 236.445,224.126 238.021,220.915 238.696 C 211.060 240.767,190.623 240.943,188.441 238.975 C 188.246 238.799,187.635 238.655,187.083 238.655 C 185.108 238.655,175.091 235.252,170.682 233.084 C 167.314 231.427,163.470 229.302,163.212 228.955 C 163.109 228.817,162.773 228.591,162.465 228.453 C 161.815 228.163,160.496 227.351,160.224 227.074 C 160.121 226.970,159.408 226.465,158.639 225.954 C 157.870 225.442,157.240 224.897,157.239 224.743 C 157.237 224.589,157.042 224.463,156.804 224.463 C 156.371 224.463,152.172 220.800,149.020 217.672 C 146.642 215.312,143.410 211.528,141.902 209.337 C 141.195 208.310,140.521 207.386,140.404 207.283 C 138.942 205.996,131.839 192.262,131.839 190.722 C 131.839 190.406,131.684 190.051,131.495 189.934 C 131.305 189.817,131.032 189.182,130.887 188.523 C 130.742 187.865,130.493 187.068,130.333 186.754 C 130.062 186.220,129.464 184.038,128.488 180.019 C 126.987 173.841,126.562 164.753,127.873 166.874 C 127.975 167.040,128.952 167.621,130.043 168.166 C 138.346 172.312,146.923 171.373,155.383 165.391 C 158.705 163.042,160.298 162.368,163.172 162.097 C 165.603 161.867,166.229 161.882,169.561 162.244 M230.065 276.564 C 230.230 278.867,230.341 279.178,230.999 279.178 C 231.657 279.178,231.768 278.867,231.933 276.564 L 232.120 273.950 234.174 273.950 L 236.228 273.950 236.337 276.617 L 236.446 279.284 238.017 279.683 C 244.422 281.306,246.867 289.284,242.051 292.844 L 240.912 293.686 242.150 294.527 C 247.864 298.410,245.565 306.777,238.204 308.892 L 236.445 309.398 236.337 311.842 L 236.228 314.286 234.080 314.398 L 231.933 314.510 231.933 311.877 C 231.933 309.317,231.907 309.244,230.999 309.244 C 230.092 309.244,230.065 309.318,230.065 311.858 L 230.065 314.472 228.011 314.472 L 225.957 314.472 225.957 311.858 L 225.957 309.244 224.276 309.244 L 222.596 309.244 222.596 294.304 L 222.596 279.365 224.276 279.365 L 225.957 279.365 225.957 276.813 C 225.957 273.773,226.013 273.697,228.184 273.839 L 229.879 273.950 230.065 276.564 M110.493 279.197 C 115.123 280.465,117.504 282.856,118.191 286.928 L 118.428 288.329 115.121 288.329 L 111.815 288.329 111.153 286.829 C 110.271 284.829,104.949 282.835,104.949 284.505 C 104.949 284.662,104.581 284.956,104.132 285.159 C 101.301 286.438,104.086 290.943,107.707 290.943 C 108.015 290.943,108.370 291.111,108.497 291.317 C 108.624 291.522,109.016 291.690,109.369 291.690 C 110.381 291.690,114.347 293.869,115.711 295.174 C 119.836 299.120,118.966 305.456,113.912 308.267 C 111.521 309.597,104.361 309.988,102.112 308.911 C 101.515 308.626,100.483 308.126,99.817 307.801 C 97.239 306.543,95.105 303.199,95.309 300.738 L 95.425 299.346 97.841 299.233 C 101.214 299.075,101.959 299.316,101.969 300.567 C 102.001 304.475,110.291 305.534,111.482 301.783 C 112.081 299.894,110.268 298.366,105.509 296.750 C 98.059 294.219,95.173 290.680,96.291 285.444 C 97.341 280.527,104.252 277.487,110.493 279.197 M143.924 281.141 C 144.305 282.115,144.851 283.443,145.138 284.090 C 145.424 284.737,145.658 285.508,145.658 285.802 C 145.658 286.096,145.773 286.452,145.914 286.593 C 146.184 286.862,146.517 287.727,147.878 291.690 C 148.337 293.025,148.928 294.622,149.191 295.238 C 149.454 295.854,150.128 297.619,150.688 299.160 C 151.248 300.700,151.942 302.490,152.230 303.138 C 152.519 303.785,152.754 304.555,152.754 304.849 C 152.754 305.144,152.870 305.500,153.010 305.640 C 153.442 306.071,154.219 308.615,154.019 308.939 C 153.916 309.107,152.361 309.244,150.565 309.244 L 147.300 309.244 146.624 307.283 C 146.253 306.204,145.758 304.860,145.526 304.295 L 145.102 303.268 140.192 303.268 C 135.871 303.268,135.247 303.347,134.999 303.922 C 134.844 304.281,134.357 305.584,133.916 306.816 L 133.116 309.057 129.988 309.166 C 126.475 309.289,125.490 309.094,126.175 308.410 C 126.414 308.170,126.611 307.739,126.611 307.451 C 126.611 307.164,126.843 306.399,127.126 305.752 C 127.410 305.105,128.181 303.063,128.840 301.214 C 129.500 299.365,130.276 297.323,130.566 296.676 C 130.855 296.028,131.092 295.240,131.092 294.924 C 131.092 294.607,131.261 294.245,131.466 294.118 C 131.671 293.991,131.839 293.628,131.839 293.312 C 131.839 292.995,132.072 292.207,132.356 291.560 C 132.640 290.912,133.085 289.795,133.346 289.076 C 133.606 288.357,134.027 287.264,134.281 286.648 C 134.534 286.032,135.124 284.435,135.592 283.100 C 136.980 279.133,136.696 279.365,140.163 279.366 L 143.231 279.368 143.924 281.141 M182.930 282.073 L 182.820 284.781 176.377 284.883 L 169.935 284.985 169.935 288.328 L 169.935 291.671 175.630 291.774 L 181.326 291.877 181.326 294.491 L 181.326 297.106 175.630 297.209 L 169.935 297.312 169.935 303.278 L 169.935 309.244 166.573 309.244 L 163.212 309.244 163.212 294.304 L 163.212 279.365 173.126 279.365 L 183.039 279.365 182.930 282.073 M213.184 281.501 C 213.387 285.007,213.468 284.967,205.963 284.967 L 199.440 284.967 199.440 287.945 L 199.440 290.924 205.135 291.027 L 210.831 291.130 210.831 293.744 L 210.831 296.359 205.135 296.462 L 199.440 296.565 199.440 300.103 L 199.440 303.641 205.930 303.641 C 213.455 303.641,213.355 303.597,213.185 306.878 L 213.072 309.057 202.894 309.156 L 192.717 309.256 192.717 294.304 L 192.717 279.353 202.894 279.452 L 213.072 279.552 213.184 281.501 M270.835 280.392 C 271.065 280.957,271.482 281.949,271.761 282.596 C 272.040 283.243,272.269 283.960,272.269 284.188 C 272.269 284.417,272.420 284.896,272.604 285.253 C 272.788 285.609,273.226 286.657,273.576 287.582 C 273.926 288.506,274.342 289.520,274.501 289.835 C 274.659 290.150,274.907 290.946,275.051 291.605 C 275.196 292.263,275.469 292.898,275.659 293.015 C 275.849 293.132,276.004 293.487,276.004 293.803 C 276.004 294.119,276.240 294.908,276.529 295.555 C 276.817 296.202,277.351 297.572,277.713 298.599 C 278.076 299.627,278.493 300.635,278.639 300.840 C 278.786 301.046,279.030 301.797,279.183 302.509 C 279.335 303.221,279.603 304.061,279.777 304.376 C 282.066 308.516,281.794 309.244,277.961 309.244 C 274.224 309.244,274.354 309.343,273.185 305.602 L 272.456 303.268 267.327 303.268 L 262.199 303.268 261.954 304.295 C 261.819 304.860,261.605 305.490,261.480 305.696 C 261.354 305.901,261.083 306.741,260.878 307.563 L 260.504 309.057 256.956 309.057 L 253.408 309.057 253.534 308.123 C 253.603 307.610,253.813 307.030,254.001 306.835 C 254.188 306.640,254.342 306.245,254.342 305.957 C 254.342 305.463,255.118 303.479,255.867 302.059 C 256.055 301.703,256.209 301.224,256.209 300.995 C 256.209 300.767,256.441 300.050,256.725 299.403 C 257.008 298.756,257.780 296.713,258.439 294.865 C 259.098 293.016,259.875 290.974,260.164 290.326 C 260.454 289.679,260.691 288.891,260.691 288.574 C 260.691 288.258,260.859 287.895,261.064 287.768 C 261.270 287.641,261.438 287.279,261.438 286.963 C 261.438 286.646,261.674 285.858,261.963 285.211 C 262.252 284.563,262.785 283.193,263.148 282.166 C 264.128 279.390,264.167 279.365,267.467 279.365 C 270.335 279.365,270.429 279.394,270.835 280.392 M296.252 281.518 C 297.172 283.459,298.101 285.530,300.098 290.093 C 300.738 291.555,301.774 291.804,301.774 290.495 C 301.774 290.298,302.353 288.932,303.060 287.459 C 303.767 285.986,304.846 283.604,305.457 282.166 L 306.569 279.552 310.147 279.445 C 314.514 279.314,314.455 279.089,311.527 284.686 C 310.317 286.998,308.216 291.049,306.858 293.689 L 304.388 298.489 304.388 303.866 L 304.388 309.244 301.027 309.244 L 297.666 309.244 297.666 303.957 L 297.666 298.669 295.839 295.086 C 294.834 293.116,293.742 290.999,293.413 290.383 C 293.084 289.767,292.814 289.066,292.813 288.827 C 292.811 288.587,292.684 288.335,292.530 288.266 C 292.255 288.144,287.955 279.971,287.955 279.570 C 287.955 279.457,289.594 279.367,291.597 279.370 L 295.238 279.375 296.252 281.518 M229.318 288.329 L 229.318 291.690 231.512 291.690 C 235.767 291.690,237.520 290.637,237.529 288.076 C 237.538 285.656,236.411 284.967,232.443 284.967 L 229.318 284.967 229.318 288.329 M266.508 290.699 C 266.112 291.963,265.675 293.249,265.535 293.557 C 265.395 293.866,265.026 294.916,264.713 295.892 L 264.145 297.666 267.273 297.666 C 270.446 297.666,271.182 297.222,270.094 295.966 C 269.925 295.771,269.484 294.603,269.114 293.371 C 268.744 292.138,268.294 290.838,268.114 290.481 C 267.934 290.125,267.787 289.588,267.787 289.289 C 267.787 287.919,267.162 288.608,266.508 290.699 M138.596 292.717 C 137.896 294.925,137.248 296.942,137.156 297.199 C 137.031 297.548,137.753 297.666,140.016 297.666 C 142.970 297.666,144.334 296.640,142.713 295.638 C 142.531 295.525,142.263 294.801,142.119 294.028 C 141.975 293.256,141.733 292.456,141.582 292.250 C 141.431 292.045,141.103 291.162,140.853 290.289 C 140.206 288.027,140.018 288.230,138.596 292.717 M229.318 300.093 L 229.318 303.641 232.282 303.641 C 236.900 303.641,238.258 302.835,238.258 300.093 C 238.258 297.352,236.900 296.545,232.282 296.545 L 229.318 296.545 229.318 300.093 " stroke="none" fill="#040404" fill-rule="evenodd"></path><path id="path2" d="M201.587 86.551 C 202.871 86.624,204.972 86.624,206.256 86.551 C 207.540 86.478,206.489 86.418,203.922 86.418 C 201.354 86.418,200.303 86.478,201.587 86.551 M255.649 106.816 C 256.451 107.638,257.192 108.310,257.294 108.310 C 257.397 108.310,256.825 107.638,256.022 106.816 C 255.220 105.994,254.480 105.322,254.377 105.322 C 254.274 105.322,254.847 105.994,255.649 106.816 M149.195 109.150 L 146.965 111.485 149.300 109.255 C 151.468 107.185,151.805 106.816,151.529 106.816 C 151.471 106.816,150.421 107.866,149.195 109.150 M259.944 111.041 C 259.944 111.106,260.490 111.652,261.158 112.255 L 262.372 113.352 261.275 112.138 C 260.252 111.007,259.944 110.753,259.944 111.041 M127.040 157.844 C 127.006 158.565,127.234 159.208,127.638 159.525 C 128.207 159.971,128.235 159.965,127.858 159.477 C 127.619 159.169,127.350 158.413,127.260 157.796 L 127.096 156.676 127.040 157.844 M161.345 162.482 C 160.935 162.759,161.086 162.794,161.905 162.611 C 163.278 162.303,163.576 162.090,162.621 162.097 C 162.227 162.100,161.653 162.274,161.345 162.482 M168.472 162.226 C 168.557 162.300,169.132 162.473,169.748 162.611 C 170.566 162.794,170.717 162.759,170.308 162.482 C 169.804 162.141,168.097 161.902,168.472 162.226 M219.608 162.465 C 220.885 162.874,221.867 162.874,220.915 162.465 C 220.504 162.288,219.832 162.149,219.421 162.155 C 218.821 162.164,218.857 162.225,219.608 162.465 M127.086 168.441 C 127.086 169.365,127.159 169.743,127.248 169.281 C 127.337 168.819,127.337 168.063,127.248 167.600 C 127.159 167.138,127.086 167.516,127.086 168.441 M260.854 214.846 L 259.757 216.060 260.971 214.963 C 262.103 213.940,262.357 213.632,262.068 213.632 C 262.004 213.632,261.458 214.178,260.854 214.846 M148.631 217.087 C 150.178 218.736,150.514 219.032,150.514 218.752 C 150.514 218.692,149.715 217.894,148.739 216.978 L 146.965 215.313 148.631 217.087 M201.587 240.426 C 202.871 240.499,204.972 240.499,206.256 240.426 C 207.540 240.353,206.489 240.293,203.922 240.293 C 201.354 240.293,200.303 240.353,201.587 240.426 M226.112 274.645 C 226.005 274.925,225.978 276.143,226.053 277.353 L 226.189 279.552 226.260 277.051 L 226.331 274.551 228.105 274.411 L 229.879 274.271 228.093 274.204 C 226.881 274.158,226.244 274.300,226.112 274.645 M232.306 274.419 C 232.306 274.575,233.063 274.642,233.987 274.568 L 235.668 274.435 235.668 276.878 C 235.668 278.222,235.794 279.399,235.948 279.495 C 236.102 279.591,236.173 278.425,236.105 276.903 L 235.982 274.136 234.144 274.136 C 233.133 274.136,232.306 274.264,232.306 274.419 M163.392 294.304 L 163.399 309.057 166.200 309.080 L 169.001 309.104 166.297 308.971 L 163.594 308.839 163.490 294.195 L 163.386 279.552 163.392 294.304 M182.628 281.717 L 182.809 284.034 182.929 282.020 C 182.995 280.912,182.914 279.869,182.748 279.702 C 182.582 279.536,182.528 280.442,182.628 281.717 M192.897 294.304 L 192.904 309.057 202.801 309.057 L 212.698 309.057 212.812 306.855 C 212.875 305.644,212.791 304.517,212.625 304.351 C 212.460 304.185,212.381 305.134,212.450 306.460 L 212.575 308.870 202.837 308.870 L 193.099 308.870 192.995 294.211 L 192.891 279.552 192.897 294.304 M212.506 281.717 L 212.688 284.034 212.808 282.020 C 212.874 280.912,212.792 279.869,212.626 279.702 C 212.461 279.536,212.407 280.442,212.506 281.717 M222.766 294.491 C 222.766 302.502,222.815 305.726,222.875 301.656 C 222.936 297.585,222.936 291.031,222.875 287.090 C 222.815 283.149,222.765 286.480,222.766 294.491 M169.721 284.717 C 169.616 284.990,169.579 286.712,169.639 288.545 L 169.748 291.877 175.444 291.892 L 181.140 291.907 175.537 291.789 L 169.935 291.671 169.935 288.141 L 169.935 284.611 176.377 284.500 L 182.820 284.388 176.365 284.304 C 171.282 284.238,169.871 284.326,169.721 284.717 M199.310 284.500 C 199.214 284.655,201.179 284.737,203.676 284.683 C 211.920 284.506,212.792 284.365,206.091 284.292 C 202.457 284.253,199.406 284.346,199.310 284.500 M229.104 284.717 C 229.000 284.990,228.970 286.712,229.039 288.545 L 229.165 291.877 229.242 288.254 L 229.318 284.631 231.466 284.496 L 233.613 284.362 231.454 284.291 C 229.950 284.242,229.237 284.371,229.104 284.717 M117.734 287.208 C 117.734 287.927,117.811 288.221,117.905 287.862 C 117.998 287.502,117.998 286.914,117.905 286.555 C 117.811 286.195,117.734 286.489,117.734 287.208 M242.763 291.410 C 242.213 292.161,242.123 292.422,242.526 292.094 C 243.138 291.597,244.064 290.196,243.781 290.196 C 243.710 290.196,243.251 290.742,242.763 291.410 M201.774 296.449 C 203.366 296.519,205.971 296.519,207.563 296.449 C 209.155 296.379,207.852 296.322,204.669 296.322 C 201.485 296.322,200.182 296.379,201.774 296.449 M229.085 300.093 C 229.085 302.353,229.147 303.229,229.221 302.041 C 229.296 300.852,229.295 299.003,229.220 297.932 C 229.145 296.861,229.084 297.834,229.085 300.093 M169.726 297.402 C 169.624 297.668,169.592 300.399,169.655 303.471 L 169.769 309.057 169.852 303.185 L 169.935 297.312 175.444 297.198 L 180.952 297.084 175.432 297.001 C 171.199 296.938,169.868 297.032,169.726 297.402 M140.056 297.666 L 136.508 297.896 139.941 297.968 C 141.907 298.009,143.472 297.880,143.604 297.666 C 143.731 297.460,143.783 297.324,143.720 297.364 C 143.656 297.403,142.007 297.539,140.056 297.666 M265.640 297.940 C 266.615 298.017,268.212 298.017,269.188 297.940 C 270.163 297.863,269.365 297.800,267.414 297.800 C 265.462 297.800,264.664 297.863,265.640 297.940 M304.097 303.346 L 304.015 308.839 301.120 308.966 L 298.226 309.093 301.132 309.169 C 304.655 309.260,304.442 309.672,304.295 303.063 L 304.179 297.852 304.097 303.346 M238.389 300.093 C 238.392 301.120,238.464 301.496,238.550 300.929 C 238.636 300.361,238.634 299.521,238.545 299.061 C 238.456 298.602,238.386 299.066,238.389 300.093 M297.814 303.641 C 297.814 306.620,297.872 307.838,297.943 306.349 C 298.014 304.860,298.014 302.423,297.943 300.934 C 297.872 299.444,297.814 300.663,297.814 303.641 M134.703 303.143 C 134.566 303.280,134.456 303.575,134.460 303.797 C 134.463 304.045,134.577 304.025,134.755 303.746 C 134.954 303.432,136.673 303.254,140.258 303.174 L 145.472 303.058 140.212 302.976 C 137.319 302.931,134.840 303.007,134.703 303.143 M262.055 303.175 C 261.959 303.329,264.288 303.404,267.231 303.343 C 272.406 303.234,272.588 303.256,272.832 304.024 C 272.971 304.461,273.166 304.736,273.267 304.635 C 273.368 304.535,273.262 304.102,273.033 303.673 C 272.605 302.873,262.526 302.415,262.055 303.175 M96.359 304.261 C 96.359 304.465,96.821 305.039,97.386 305.537 L 98.413 306.443 97.479 305.322 C 96.965 304.706,96.503 304.132,96.452 304.046 C 96.401 303.960,96.359 304.057,96.359 304.261 M126.570 308.980 C 126.734 309.144,128.197 309.226,129.821 309.164 L 132.773 309.051 129.522 308.867 C 127.734 308.766,126.405 308.817,126.570 308.980 M147.485 308.980 C 147.649 309.144,149.112 309.226,150.736 309.164 L 153.688 309.051 150.437 308.867 C 148.649 308.766,147.320 308.817,147.485 308.980 M224.540 309.127 L 225.924 309.287 226.034 311.786 L 226.144 314.286 228.011 314.324 L 229.879 314.362 228.121 314.211 L 226.364 314.059 226.254 311.558 L 226.144 309.057 224.650 309.012 L 223.156 308.968 224.540 309.127 M230.350 309.134 C 230.814 309.224,231.487 309.220,231.844 309.127 C 232.201 309.033,231.821 308.960,230.999 308.964 C 230.177 308.969,229.885 309.045,230.350 309.134 M235.917 309.119 C 235.780 309.256,235.668 310.450,235.668 311.771 L 235.668 314.174 234.004 314.042 C 233.089 313.969,232.479 314.048,232.648 314.217 C 232.817 314.385,233.607 314.470,234.405 314.405 L 235.854 314.286 236.041 311.577 C 236.144 310.088,236.214 308.869,236.197 308.870 C 236.180 308.870,236.054 308.982,235.917 309.119 M255.369 309.144 C 256.242 309.222,257.670 309.222,258.543 309.144 C 259.416 309.065,258.702 309.001,256.956 309.001 C 255.210 309.001,254.496 309.065,255.369 309.144 M276.284 309.144 C 277.157 309.222,278.585 309.222,279.458 309.144 C 280.331 309.065,279.617 309.001,277.871 309.001 C 276.125 309.001,275.411 309.065,276.284 309.144 M106.729 309.514 C 107.401 309.597,108.409 309.596,108.970 309.511 C 109.531 309.425,108.982 309.357,107.750 309.359 C 106.517 309.362,106.058 309.431,106.729 309.514 " stroke="none" fill="#042362" fill-rule="evenodd"></path><path id="path3" d="M201.027 86.926 C 202.619 86.996,205.224 86.996,206.816 86.926 C 208.408 86.856,207.106 86.798,203.922 86.798 C 200.738 86.798,199.435 86.856,201.027 86.926 M192.904 87.395 C 191.904 87.649,191.884 87.680,192.717 87.680 C 193.231 87.680,194.155 87.552,194.771 87.395 C 195.771 87.141,195.791 87.110,194.958 87.110 C 194.444 87.110,193.520 87.238,192.904 87.395 M212.698 87.395 C 213.315 87.552,214.323 87.680,214.939 87.680 L 216.060 87.680 214.939 87.395 C 214.323 87.238,213.315 87.110,212.698 87.110 L 211.578 87.110 212.698 87.395 M186.928 88.533 C 186.408 88.769,186.634 88.802,187.675 88.644 C 188.497 88.519,189.239 88.355,189.325 88.279 C 189.646 87.996,187.645 88.208,186.928 88.533 M218.519 88.279 C 218.604 88.355,219.346 88.519,220.168 88.644 C 221.209 88.802,221.436 88.769,220.915 88.533 C 220.198 88.208,218.198 87.996,218.519 88.279 M183.754 89.262 C 182.984 89.509,182.951 89.567,183.567 89.593 C 183.978 89.610,184.566 89.461,184.874 89.262 C 185.528 88.839,185.074 88.839,183.754 89.262 M222.782 89.262 C 222.909 89.468,223.382 89.624,223.832 89.610 C 224.620 89.584,224.623 89.572,223.903 89.262 C 222.875 88.821,222.509 88.821,222.782 89.262 M174.603 92.450 C 173.665 92.902,173.634 92.953,174.416 92.765 C 174.930 92.641,175.510 92.391,175.705 92.208 C 176.189 91.756,175.923 91.814,174.603 92.450 M171.802 93.557 C 171.289 93.851,171.036 94.091,171.242 94.091 C 171.447 94.091,172.035 93.851,172.549 93.557 C 173.063 93.264,173.315 93.024,173.109 93.024 C 172.904 93.024,172.316 93.264,171.802 93.557 M237.162 94.289 C 237.162 94.392,237.834 94.819,238.655 95.238 C 239.477 95.657,240.149 95.916,240.149 95.814 C 240.149 95.711,239.477 95.284,238.655 94.865 C 237.834 94.445,237.162 94.186,237.162 94.289 M240.523 96.157 C 240.523 96.259,241.195 96.686,242.017 97.106 C 242.838 97.525,243.511 97.784,243.511 97.681 C 243.511 97.578,242.838 97.151,242.017 96.732 C 241.195 96.313,240.523 96.054,240.523 96.157 M163.679 97.895 C 162.406 98.711,161.994 99.258,163.119 98.640 C 163.976 98.169,165.318 97.131,165.079 97.124 C 164.977 97.121,164.346 97.468,163.679 97.895 M244.631 98.585 C 245.145 99.015,245.901 99.542,246.312 99.756 C 246.822 100.020,246.762 99.895,246.125 99.361 C 245.612 98.930,244.855 98.404,244.444 98.190 C 243.935 97.926,243.994 98.051,244.631 98.585 M156.863 102.739 L 155.182 104.263 156.956 102.880 C 158.511 101.668,158.972 101.211,158.637 101.215 C 158.585 101.215,157.787 101.901,156.863 102.739 M149.571 109.150 L 146.592 112.232 149.673 109.252 C 151.368 107.614,152.754 106.227,152.754 106.171 C 152.754 105.899,152.338 106.289,149.571 109.150 M257.330 108.397 C 257.330 108.525,257.918 109.254,258.637 110.016 C 259.356 110.779,259.944 111.244,259.944 111.050 C 259.944 110.856,259.356 110.127,258.637 109.430 C 257.918 108.734,257.330 108.268,257.330 108.397 M260.317 111.788 C 260.317 111.852,260.864 112.399,261.531 113.002 L 262.745 114.099 261.648 112.885 C 260.626 111.754,260.317 111.500,260.317 111.788 M143.030 116.544 C 142.372 117.375,141.896 118.113,141.972 118.183 C 142.048 118.254,142.662 117.574,143.336 116.672 C 144.876 114.612,144.639 114.513,143.030 116.544 M140.945 119.234 C 139.660 121.415,139.576 121.602,140.231 120.822 C 140.989 119.918,141.643 118.768,141.398 118.768 C 141.301 118.768,141.097 118.978,140.945 119.234 M139.078 122.222 C 137.792 124.403,137.709 124.590,138.363 123.810 C 139.122 122.906,139.776 121.755,139.531 121.755 C 139.433 121.755,139.229 121.965,139.078 122.222 M133.022 133.688 C 132.804 134.314,132.705 134.827,132.802 134.827 C 133.054 134.827,133.759 132.887,133.574 132.702 C 133.489 132.618,133.241 133.061,133.022 133.688 M274.724 134.454 C 274.861 134.967,275.129 135.640,275.320 135.948 C 275.560 136.337,275.590 136.223,275.416 135.574 C 275.279 135.061,275.011 134.388,274.820 134.080 C 274.580 133.691,274.550 133.805,274.724 134.454 M129.812 142.884 C 129.675 143.431,129.634 143.951,129.722 144.039 C 129.810 144.127,129.995 143.751,130.132 143.204 C 130.269 142.657,130.310 142.137,130.222 142.049 C 130.134 141.961,129.949 142.336,129.812 142.884 M277.725 143.417 C 277.853 144.136,278.108 144.977,278.293 145.285 C 278.690 145.948,278.308 144.012,277.814 142.857 C 277.598 142.353,277.569 142.536,277.725 143.417 M128.902 146.655 C 128.874 147.100,128.755 147.772,128.637 148.149 C 128.433 148.796,128.444 148.797,128.848 148.169 C 129.082 147.803,129.202 147.131,129.114 146.675 C 128.953 145.846,128.953 145.846,128.902 146.655 M278.693 147.339 C 278.693 147.750,278.827 148.506,278.992 149.020 C 279.228 149.759,279.291 149.798,279.291 149.206 C 279.291 148.796,279.156 148.039,278.992 147.526 C 278.755 146.786,278.693 146.747,278.693 147.339 M127.606 154.218 C 127.469 155.535,127.427 156.683,127.513 156.769 C 127.744 157.000,128.212 152.890,128.020 152.315 C 127.930 152.045,127.744 152.901,127.606 154.218 M279.813 154.248 C 279.803 154.967,279.929 156.312,280.093 157.236 C 280.370 158.793,280.393 158.820,280.411 157.610 C 280.422 156.891,280.296 155.546,280.131 154.622 C 279.854 153.065,279.831 153.038,279.813 154.248 M164.604 155.638 C 165.267 155.721,166.444 155.722,167.219 155.641 C 167.993 155.561,167.451 155.493,166.013 155.491 C 164.575 155.490,163.941 155.556,164.604 155.638 M215.024 155.638 C 215.687 155.721,216.864 155.722,217.639 155.641 C 218.414 155.561,217.871 155.493,216.433 155.491 C 214.995 155.490,214.361 155.556,215.024 155.638 M265.818 155.638 C 266.481 155.721,267.657 155.722,268.432 155.641 C 269.207 155.561,268.665 155.493,267.227 155.491 C 265.789 155.490,265.155 155.556,265.818 155.638 M171.989 156.489 C 172.400 156.666,172.988 156.810,173.296 156.810 C 173.649 156.810,173.580 156.692,173.109 156.489 C 172.698 156.313,172.110 156.168,171.802 156.168 C 171.449 156.168,171.518 156.287,171.989 156.489 M208.777 156.676 C 207.613 157.341,208.169 157.341,209.897 156.676 C 210.753 156.346,210.947 156.167,210.458 156.157 C 210.047 156.149,209.290 156.382,208.777 156.676 M272.674 156.250 C 272.759 156.324,273.333 156.497,273.950 156.635 C 274.768 156.818,274.919 156.783,274.510 156.506 C 274.005 156.165,272.299 155.927,272.674 156.250 M127.731 159.240 C 127.731 159.342,128.235 159.785,128.852 160.224 C 129.468 160.663,129.972 160.938,129.972 160.835 C 129.972 160.732,129.468 160.289,128.852 159.851 C 128.235 159.412,127.731 159.137,127.731 159.240 M151.349 160.421 C 150.273 161.145,149.393 161.819,149.393 161.918 C 149.393 162.018,150.317 161.485,151.447 160.735 C 153.242 159.544,153.769 159.104,153.403 159.104 C 153.349 159.104,152.425 159.696,151.349 160.421 M230.812 160.598 C 232.561 161.902,233.858 162.658,232.848 161.784 C 231.656 160.754,229.352 159.104,229.104 159.104 C 228.942 159.104,229.711 159.776,230.812 160.598 M252.904 160.226 C 252.051 160.844,251.354 161.443,251.354 161.557 C 251.354 161.671,252.110 161.221,253.035 160.557 C 254.569 159.455,254.944 159.104,254.585 159.104 C 254.513 159.104,253.756 159.609,252.904 160.226 M199.477 162.098 C 198.573 162.711,197.976 163.212,198.150 163.212 C 198.489 163.212,201.307 161.333,201.307 161.107 C 201.307 160.877,201.172 160.950,199.477 162.098 M162.465 162.447 C 161.951 162.601,163.044 162.646,164.893 162.547 C 166.741 162.448,168.324 162.304,168.410 162.229 C 168.702 161.971,163.401 162.165,162.465 162.447 M213.259 162.450 C 212.745 162.606,213.754 162.651,215.500 162.549 C 217.246 162.448,218.744 162.303,218.830 162.228 C 219.124 161.970,214.191 162.166,213.259 162.450 M265.818 162.361 C 266.481 162.444,267.657 162.445,268.432 162.364 C 269.207 162.283,268.665 162.216,267.227 162.214 C 265.789 162.212,265.155 162.279,265.818 162.361 M172.092 163.574 C 172.971 163.979,174.483 164.832,175.453 165.470 C 176.424 166.107,176.804 166.267,176.298 165.823 C 175.078 164.755,172.591 163.345,171.429 163.063 C 170.915 162.939,171.214 163.169,172.092 163.574 M222.222 163.399 C 222.736 163.692,223.324 163.932,223.529 163.932 C 223.735 163.932,223.483 163.692,222.969 163.399 C 222.456 163.105,221.867 162.865,221.662 162.865 C 221.457 162.865,221.709 163.105,222.222 163.399 M272.300 162.979 C 272.682 163.325,275.630 164.702,275.630 164.534 C 275.630 164.322,272.812 162.838,272.408 162.838 C 272.263 162.838,272.214 162.902,272.300 162.979 M134.454 163.585 C 134.762 163.785,135.266 163.947,135.574 163.947 C 136.072 163.947,136.072 163.907,135.574 163.585 C 135.266 163.386,134.762 163.223,134.454 163.223 C 133.956 163.223,133.956 163.264,134.454 163.585 M224.090 164.099 C 224.090 164.187,224.688 164.612,225.419 165.043 C 226.151 165.475,226.644 165.658,226.516 165.451 C 226.266 165.046,224.090 163.834,224.090 164.099 M258.170 164.749 C 256.897 165.564,256.485 166.112,257.610 165.493 C 258.467 165.022,259.809 163.984,259.570 163.977 C 259.468 163.974,258.838 164.321,258.170 164.749 M139.216 164.603 C 139.883 164.685,140.976 164.685,141.643 164.603 C 142.311 164.520,141.765 164.452,140.430 164.452 C 139.094 164.452,138.548 164.520,139.216 164.603 M189.628 164.602 C 190.291 164.684,191.467 164.686,192.242 164.605 C 193.017 164.524,192.474 164.457,191.036 164.455 C 189.599 164.453,188.965 164.519,189.628 164.602 M240.421 164.602 C 241.084 164.684,242.261 164.686,243.036 164.605 C 243.810 164.524,243.268 164.457,241.830 164.455 C 240.392 164.453,239.758 164.519,240.421 164.602 M127.564 167.352 C 127.820 167.766,129.987 168.924,130.168 168.743 C 130.237 168.674,129.631 168.254,128.821 167.811 C 128.011 167.367,127.446 167.160,127.564 167.352 M229.132 167.514 C 229.542 167.848,230.215 168.287,230.626 168.489 L 231.373 168.855 230.626 168.247 C 230.215 167.913,229.542 167.474,229.132 167.272 L 228.385 166.906 229.132 167.514 M253.688 167.737 C 252.415 168.552,252.003 169.099,253.128 168.481 C 253.985 168.010,255.327 166.972,255.089 166.965 C 254.986 166.962,254.356 167.309,253.688 167.737 M279.678 167.399 C 280.042 167.863,280.124 168.829,279.979 170.947 C 279.823 173.220,279.851 173.489,280.105 172.176 C 280.640 169.410,280.553 167.838,279.832 167.273 C 279.243 166.811,279.228 166.823,279.678 167.399 M179.645 168.251 C 179.645 168.504,182.679 170.013,182.848 169.844 C 182.926 169.766,182.238 169.336,181.318 168.889 C 180.398 168.443,179.645 168.155,179.645 168.251 M250.794 169.388 C 249.855 169.840,249.825 169.891,250.607 169.702 C 251.120 169.578,251.700 169.328,251.895 169.146 C 252.380 168.693,252.114 168.752,250.794 169.388 M127.624 172.176 C 127.737 173.511,127.892 174.673,127.967 174.759 C 128.217 175.042,128.022 172.009,127.717 170.868 C 127.528 170.162,127.494 170.646,127.624 172.176 M183.940 170.308 C 184.351 170.485,185.023 170.624,185.434 170.618 C 186.035 170.609,185.998 170.549,185.247 170.308 C 183.970 169.899,182.989 169.899,183.940 170.308 M278.826 178.359 C 278.685 179.108,278.645 179.796,278.736 179.888 C 278.827 179.979,279.017 179.440,279.158 178.691 C 279.298 177.941,279.339 177.253,279.247 177.162 C 279.156 177.071,278.966 177.609,278.826 178.359 M128.719 179.272 C 129.015 180.882,129.227 181.186,129.219 179.988 C 129.216 179.491,129.048 178.833,128.846 178.525 C 128.588 178.131,128.550 178.352,128.719 179.272 M277.871 182.633 C 277.639 183.496,277.522 184.275,277.611 184.365 C 277.700 184.454,277.955 183.812,278.177 182.939 C 278.399 182.065,278.516 181.286,278.437 181.207 C 278.358 181.128,278.104 181.770,277.871 182.633 M129.651 183.007 C 129.651 183.315,129.795 183.903,129.972 184.314 C 130.174 184.785,130.293 184.854,130.293 184.500 C 130.293 184.192,130.149 183.604,129.972 183.193 C 129.770 182.722,129.651 182.653,129.651 183.007 M274.925 191.638 C 274.695 192.298,274.572 192.904,274.652 192.983 C 274.732 193.063,274.985 192.589,275.215 191.929 C 275.445 191.269,275.568 190.663,275.488 190.583 C 275.408 190.503,275.155 190.978,274.925 191.638 M133.022 193.110 C 133.241 193.736,133.489 194.180,133.574 194.095 C 133.759 193.910,133.054 191.970,132.802 191.970 C 132.705 191.970,132.804 192.483,133.022 193.110 M137.436 201.961 C 137.871 202.731,138.574 203.782,138.998 204.295 L 139.771 205.229 139.118 204.141 C 138.759 203.542,138.134 202.492,137.730 201.806 C 136.718 200.091,136.459 200.227,137.436 201.961 M140.008 205.976 C 140.210 206.387,140.648 207.059,140.983 207.470 L 141.591 208.217 141.224 207.470 C 141.023 207.059,140.584 206.387,140.250 205.976 L 139.641 205.229 140.008 205.976 M141.929 208.621 C 141.932 208.810,142.536 209.636,143.272 210.458 L 144.609 211.951 143.381 210.271 C 142.705 209.346,142.101 208.520,142.038 208.434 C 141.975 208.349,141.926 208.433,141.929 208.621 M261.228 214.099 L 260.131 215.313 261.345 214.216 C 262.012 213.613,262.558 213.066,262.558 213.002 C 262.558 212.713,262.250 212.968,261.228 214.099 M149.560 217.636 C 151.192 219.324,152.607 220.627,152.703 220.530 C 152.800 220.434,152.804 220.313,152.713 220.261 C 152.621 220.210,151.207 218.908,149.569 217.367 L 146.592 214.566 149.560 217.636 M257.983 217.402 C 255.583 219.838,255.722 220.150,258.161 217.799 C 259.234 216.764,260.033 215.846,259.935 215.760 C 259.837 215.673,258.959 216.413,257.983 217.402 M254.505 220.822 L 253.408 222.035 254.622 220.939 C 255.753 219.916,256.007 219.608,255.719 219.608 C 255.655 219.608,255.108 220.154,254.505 220.822 M154.435 222.039 C 156.307 223.760,158.730 225.701,158.730 225.478 C 158.730 225.386,157.428 224.265,155.836 222.988 C 154.244 221.710,153.613 221.283,154.435 222.039 M245.522 227.515 C 243.811 228.802,243.597 229.108,244.940 228.344 C 246.094 227.688,247.199 226.704,246.781 226.704 C 246.681 226.704,246.114 227.069,245.522 227.515 M163.025 228.391 C 163.436 228.726,164.108 229.165,164.519 229.366 L 165.266 229.733 164.519 229.125 C 164.108 228.790,163.436 228.352,163.025 228.150 L 162.278 227.783 163.025 228.391 M173.669 233.925 C 173.669 234.022,174.212 234.290,174.875 234.521 C 175.538 234.752,175.916 234.787,175.715 234.599 C 175.290 234.201,173.669 233.667,173.669 233.925 M229.505 235.494 C 228.571 235.944,228.540 235.996,229.318 235.805 C 230.377 235.547,231.566 234.941,230.999 234.949 C 230.794 234.952,230.121 235.197,229.505 235.494 M219.421 238.282 C 218.404 238.541,218.387 238.569,219.234 238.585 C 219.748 238.595,220.504 238.459,220.915 238.282 C 221.836 237.886,220.976 237.886,219.421 238.282 M187.519 238.419 C 187.605 238.495,188.347 238.659,189.169 238.784 C 190.210 238.942,190.437 238.909,189.916 238.673 C 189.199 238.348,187.199 238.136,187.519 238.419 M192.904 239.388 C 194.045 239.693,197.077 239.888,196.794 239.639 C 196.709 239.563,195.546 239.409,194.211 239.295 C 192.681 239.165,192.198 239.199,192.904 239.388 M212.512 239.402 L 210.831 239.664 212.325 239.676 C 213.147 239.682,214.323 239.559,214.939 239.402 C 216.433 239.022,214.957 239.022,212.512 239.402 M198.786 240.043 C 199.351 240.129,200.275 240.129,200.840 240.043 C 201.405 239.958,200.943 239.888,199.813 239.888 C 198.683 239.888,198.221 239.958,198.786 240.043 M206.629 240.043 C 207.194 240.129,208.119 240.129,208.683 240.043 C 209.248 239.958,208.786 239.888,207.656 239.888 C 206.527 239.888,206.064 239.958,206.629 240.043 M226.331 276.916 L 226.331 279.322 224.743 279.437 L 223.156 279.552 223.149 294.211 L 223.143 308.870 223.247 294.326 L 223.351 279.781 224.934 279.666 L 226.517 279.552 226.628 277.218 L 226.740 274.883 228.011 274.883 L 229.283 274.883 229.394 277.218 L 229.505 279.552 230.999 279.552 L 232.493 279.552 232.604 277.218 L 232.715 274.883 234.005 274.883 L 235.294 274.883 235.294 277.049 C 235.294 279.248,235.723 280.131,236.769 280.088 C 237.124 280.074,237.023 279.934,236.508 279.727 C 235.756 279.425,235.668 279.131,235.668 276.928 L 235.668 274.467 234.080 274.582 L 232.493 274.697 232.382 277.031 L 232.271 279.365 230.981 279.365 L 229.692 279.365 229.692 276.937 L 229.692 274.510 228.011 274.510 L 226.331 274.510 226.331 276.916 M102.894 279.756 C 102.374 279.992,102.600 280.025,103.641 279.867 C 104.463 279.742,105.205 279.578,105.291 279.502 C 105.612 279.219,103.611 279.431,102.894 279.756 M108.715 279.502 C 108.800 279.578,109.542 279.752,110.364 279.890 C 111.435 280.069,111.699 280.032,111.298 279.758 C 110.794 279.415,108.340 279.172,108.715 279.502 M137.051 280.144 C 136.822 280.572,136.716 281.005,136.817 281.106 C 136.918 281.206,137.111 280.940,137.246 280.514 C 137.716 279.031,142.505 279.383,143.226 280.952 C 143.621 281.813,143.717 281.895,143.555 281.232 C 143.154 279.596,142.717 279.365,140.023 279.365 C 137.815 279.365,137.411 279.471,137.051 280.144 M163.585 279.639 C 163.585 279.796,167.787 279.878,172.922 279.819 L 182.260 279.714 182.260 281.780 L 182.260 283.847 176.314 283.847 C 168.599 283.847,169.188 283.492,169.188 288.142 C 169.188 292.765,168.701 292.437,175.567 292.437 L 180.766 292.437 180.766 294.481 L 180.766 296.526 175.070 296.629 L 169.374 296.732 169.355 302.894 L 169.336 309.057 169.542 303.081 L 169.748 297.106 175.444 297.002 L 181.139 296.899 181.139 294.491 L 181.139 292.083 175.444 291.980 L 169.748 291.877 169.748 288.142 L 169.748 284.407 176.208 284.305 L 182.668 284.203 182.557 281.877 L 182.446 279.552 173.016 279.452 C 167.829 279.397,163.585 279.481,163.585 279.639 M202.521 279.642 L 212.138 279.751 212.138 281.799 L 212.138 283.847 205.882 283.853 C 198.197 283.860,198.637 283.604,198.771 287.986 L 198.880 291.503 204.727 291.690 C 207.943 291.793,210.496 291.751,210.401 291.597 C 210.305 291.443,207.709 291.317,204.632 291.317 L 199.038 291.317 199.146 287.862 L 199.253 284.407 205.900 284.305 L 212.547 284.203 212.436 281.877 L 212.325 279.552 202.614 279.542 L 192.904 279.532 202.521 279.642 M264.670 279.645 C 264.575 279.799,265.810 279.925,267.414 279.925 C 269.018 279.925,270.252 279.799,270.157 279.645 C 270.062 279.491,268.827 279.365,267.414 279.365 C 266.000 279.365,264.765 279.491,264.670 279.645 M288.702 280.090 C 288.702 280.489,288.855 280.909,289.041 281.024 C 289.227 281.139,289.291 280.897,289.184 280.486 C 288.844 279.185,294.555 279.366,295.051 280.672 C 295.448 281.716,295.908 281.979,295.542 280.952 C 295.038 279.539,294.611 279.365,291.644 279.365 C 288.981 279.365,288.702 279.434,288.702 280.090 M306.973 280.019 C 306.552 280.575,306.557 280.603,307.002 280.205 C 307.318 279.923,308.593 279.739,310.221 279.739 C 312.028 279.739,312.978 279.892,313.105 280.205 C 313.217 280.484,313.305 280.409,313.323 280.019 C 313.348 279.449,312.974 279.365,310.410 279.365 C 308.045 279.365,307.371 279.493,306.973 280.019 M98.265 282.553 C 97.627 283.279,97.106 283.985,97.106 284.121 C 97.106 284.258,97.233 284.210,97.389 284.015 C 97.544 283.820,98.164 283.114,98.766 282.446 C 99.367 281.779,99.762 281.232,99.642 281.232 C 99.522 281.232,98.902 281.827,98.265 282.553 M114.286 281.349 C 114.286 281.414,114.832 281.960,115.500 282.563 L 116.713 283.660 115.616 282.446 C 114.594 281.315,114.286 281.061,114.286 281.349 M242.151 282.848 C 242.899 283.840,243.534 285.100,243.562 285.650 C 243.605 286.492,243.637 286.521,243.771 285.833 C 243.969 284.815,243.149 283.200,241.813 281.979 C 240.988 281.225,241.053 281.392,242.151 282.848 M144.005 283.100 C 144.142 283.613,144.410 284.286,144.601 284.594 C 144.841 284.983,144.871 284.869,144.697 284.220 C 144.560 283.707,144.292 283.035,144.101 282.726 C 143.861 282.337,143.831 282.451,144.005 283.100 M304.442 285.207 C 303.983 286.152,303.685 287.003,303.780 287.098 C 303.875 287.193,304.305 286.474,304.735 285.501 C 305.751 283.204,305.525 282.977,304.442 285.207 M229.194 284.127 C 229.101 284.281,230.477 284.419,232.253 284.434 C 234.253 284.450,235.055 284.361,234.360 284.198 C 232.808 283.834,229.398 283.787,229.194 284.127 M271.725 284.687 C 271.865 285.149,272.133 285.692,272.321 285.893 C 272.509 286.093,272.474 285.715,272.243 285.052 C 271.770 283.695,271.333 283.387,271.725 284.687 M96.585 285.185 C 96.270 286.006,96.312 289.171,96.644 289.694 C 96.795 289.931,96.919 288.880,96.919 287.359 C 96.919 284.343,96.916 284.323,96.585 285.185 M110.811 285.330 C 111.057 285.653,111.425 286.333,111.628 286.842 C 111.874 287.458,112.005 287.556,112.021 287.136 C 112.034 286.788,111.667 286.107,111.204 285.623 C 110.742 285.140,110.565 285.008,110.811 285.330 M236.822 285.454 C 237.317 285.928,237.791 286.265,237.875 286.204 C 238.118 286.027,236.713 284.594,236.298 284.594 C 236.091 284.594,236.328 284.981,236.822 285.454 M145.125 286.088 C 145.263 286.601,145.531 287.274,145.721 287.582 C 145.962 287.971,145.991 287.857,145.818 287.208 C 145.680 286.695,145.412 286.022,145.222 285.714 C 144.981 285.325,144.952 285.439,145.125 286.088 M261.501 287.563 C 261.282 288.189,261.183 288.702,261.280 288.702 C 261.532 288.702,262.237 286.762,262.052 286.577 C 261.967 286.492,261.719 286.936,261.501 287.563 M266.672 287.862 C 266.677 288.376,266.747 288.406,267.002 288.004 C 267.265 287.590,267.411 287.625,267.772 288.190 C 268.190 288.846,268.204 288.847,268.002 288.205 C 267.884 287.828,267.787 287.450,267.787 287.364 C 267.787 287.279,267.535 287.208,267.227 287.208 C 266.919 287.208,266.669 287.502,266.672 287.862 M113.455 288.229 C 114.334 288.308,115.678 288.307,116.443 288.227 C 117.208 288.146,116.489 288.082,114.846 288.083 C 113.203 288.085,112.577 288.150,113.455 288.229 M243.466 289.367 C 243.343 290.110,243.398 290.458,243.605 290.251 C 243.793 290.063,243.885 289.511,243.808 289.025 C 243.691 288.278,243.638 288.330,243.466 289.367 M273.603 289.449 C 273.741 289.963,274.009 290.635,274.199 290.943 C 274.440 291.332,274.469 291.218,274.296 290.570 C 274.158 290.056,273.890 289.384,273.700 289.076 C 273.459 288.686,273.430 288.800,273.603 289.449 M265.733 290.570 C 265.593 291.011,265.562 291.457,265.665 291.560 C 265.767 291.662,265.966 291.385,266.106 290.943 C 266.247 290.501,266.277 290.056,266.175 289.953 C 266.072 289.850,265.873 290.128,265.733 290.570 M97.399 291.130 C 97.611 291.541,98.262 292.296,98.845 292.809 L 99.907 293.741 98.789 292.436 C 97.018 290.366,96.994 290.343,97.399 291.130 M107.563 291.627 C 107.871 291.817,108.543 292.086,109.057 292.223 C 109.706 292.396,109.820 292.367,109.430 292.127 C 109.122 291.936,108.450 291.668,107.937 291.531 C 107.288 291.357,107.174 291.386,107.563 291.627 M141.986 292.456 C 142.205 293.083,142.453 293.526,142.537 293.442 C 142.722 293.257,142.018 291.317,141.765 291.317 C 141.668 291.317,141.768 291.829,141.986 292.456 M232.306 291.690 L 228.758 291.921 232.191 291.992 C 234.158 292.033,235.722 291.904,235.854 291.690 C 235.981 291.485,236.033 291.349,235.970 291.388 C 235.906 291.427,234.258 291.563,232.306 291.690 M274.724 292.437 C 274.861 292.951,275.129 293.623,275.320 293.931 C 275.560 294.320,275.590 294.206,275.416 293.557 C 275.279 293.044,275.011 292.372,274.820 292.063 C 274.580 291.674,274.550 291.788,274.724 292.437 M265.060 292.717 C 264.770 293.233,264.362 295.240,264.594 295.008 C 264.871 294.730,265.551 292.437,265.355 292.437 C 265.279 292.437,265.146 292.563,265.060 292.717 M112.979 293.811 C 114.126 294.918,116.648 296.618,115.895 295.778 C 115.445 295.276,114.521 294.547,113.841 294.158 C 113.161 293.769,112.773 293.613,112.979 293.811 M242.126 295.288 C 242.700 295.877,243.417 296.695,243.719 297.106 C 244.232 297.801,244.241 297.784,243.848 296.864 C 243.616 296.321,242.899 295.503,242.255 295.047 L 241.083 294.217 242.126 295.288 M275.844 295.425 C 275.982 295.938,276.250 296.611,276.440 296.919 C 276.681 297.308,276.710 297.194,276.537 296.545 C 276.399 296.032,276.131 295.359,275.941 295.051 C 275.700 294.662,275.671 294.776,275.844 295.425 M130.760 296.960 C 130.530 297.620,130.407 298.226,130.487 298.306 C 130.567 298.385,130.821 297.911,131.051 297.251 C 131.281 296.591,131.404 295.985,131.324 295.905 C 131.244 295.826,130.991 296.300,130.760 296.960 M198.942 296.047 C 198.805 296.184,198.693 298.117,198.693 300.342 L 198.693 304.388 205.398 304.388 L 212.103 304.388 212.240 306.536 L 212.378 308.683 212.352 306.443 L 212.325 304.202 205.696 304.100 L 199.066 303.998 199.066 300.094 L 199.066 296.191 204.949 296.078 L 210.831 295.965 205.011 295.881 C 201.810 295.836,199.079 295.910,198.942 296.047 M229.692 296.027 C 231.849 296.296,236.687 296.339,236.288 296.085 C 236.049 295.934,234.258 295.832,232.306 295.860 C 230.355 295.888,229.178 295.963,229.692 296.027 M263.822 296.337 C 263.212 297.927,263.729 298.221,267.331 298.333 C 271.094 298.450,271.676 298.135,270.844 296.431 C 270.496 295.719,270.471 295.771,270.656 296.825 L 270.868 298.039 267.418 298.039 L 263.968 298.039 264.132 296.919 C 264.307 295.724,264.162 295.451,263.822 296.337 M136.440 297.479 C 136.519 298.248,143.790 298.907,143.792 298.146 C 143.792 297.985,142.210 297.906,140.276 297.971 C 137.140 298.076,136.738 298.015,136.562 297.410 C 136.396 296.841,136.376 296.851,136.440 297.479 M110.522 298.633 C 112.092 299.953,112.145 302.106,110.644 303.534 C 109.603 304.524,110.190 304.372,111.391 303.340 C 112.843 302.093,111.493 297.666,109.661 297.666 C 109.503 297.666,109.890 298.101,110.522 298.633 M297.955 302.088 C 298.113 308.833,298.281 309.586,298.344 303.828 C 298.376 300.952,298.278 298.405,298.127 298.166 C 297.976 297.928,297.898 299.693,297.955 302.088 M244.357 300.467 C 244.358 302.608,244.412 302.844,244.655 301.774 C 244.818 301.055,244.818 299.879,244.654 299.160 C 244.410 298.089,244.357 298.325,244.357 300.467 M95.533 299.985 C 95.440 300.250,95.495 300.887,95.657 301.401 C 95.933 302.281,95.945 302.270,95.874 301.214 L 95.798 300.093 98.216 299.980 C 100.195 299.887,100.727 299.989,101.144 300.540 C 101.628 301.179,101.648 301.175,101.523 300.467 C 101.361 299.543,95.845 299.099,95.533 299.985 M101.617 301.810 C 101.601 302.137,101.965 302.725,102.428 303.117 C 103.261 303.822,103.263 303.822,102.663 303.081 C 102.330 302.670,101.966 302.082,101.852 301.774 C 101.677 301.299,101.642 301.304,101.617 301.810 M151.091 302.241 C 151.230 302.703,151.498 303.245,151.686 303.446 C 151.874 303.647,151.839 303.269,151.608 302.606 C 151.135 301.249,150.698 300.941,151.091 302.241 M238.282 302.077 C 238.282 303.137,236.249 303.829,232.512 304.041 L 228.758 304.253 232.231 304.321 C 234.633 304.368,236.024 304.223,236.740 303.853 C 237.961 303.222,238.861 302.229,238.522 301.890 C 238.390 301.758,238.282 301.842,238.282 302.077 M140.172 302.800 L 145.330 302.916 145.853 304.119 C 146.141 304.781,146.383 305.065,146.391 304.752 C 146.440 302.819,145.558 302.516,140.128 302.603 L 135.014 302.685 140.172 302.800 M261.886 302.969 C 261.640 303.216,261.438 303.584,261.438 303.788 C 261.438 303.991,261.653 303.864,261.915 303.505 C 262.337 302.928,262.997 302.866,267.669 302.967 C 270.571 303.030,272.868 302.955,272.772 302.801 C 272.469 302.313,262.387 302.469,261.886 302.969 M134.341 303.175 C 134.051 303.690,133.643 305.697,133.875 305.465 C 134.152 305.188,134.832 302.894,134.636 302.894 C 134.560 302.894,134.427 303.021,134.341 303.175 M116.961 304.218 C 116.335 305.591,116.454 305.884,117.131 304.636 C 117.447 304.052,117.636 303.506,117.550 303.420 C 117.465 303.335,117.200 303.694,116.961 304.218 M243.189 304.945 C 242.766 305.662,241.867 306.586,241.191 306.998 C 240.515 307.410,240.160 307.748,240.401 307.748 C 241.086 307.751,243.105 305.907,243.720 304.717 C 244.501 303.208,244.116 303.373,243.189 304.945 M127.794 305.116 C 127.575 305.743,127.476 306.256,127.573 306.256 C 127.825 306.256,128.530 304.316,128.345 304.131 C 128.260 304.046,128.012 304.490,127.794 305.116 M152.211 305.229 C 152.351 305.691,152.619 306.233,152.807 306.434 C 152.994 306.635,152.959 306.257,152.728 305.594 C 152.255 304.237,151.818 303.929,152.211 305.229 M254.404 306.610 C 254.186 307.237,254.087 307.750,254.184 307.750 C 254.436 307.750,255.141 305.810,254.956 305.625 C 254.871 305.540,254.623 305.984,254.404 306.610 M98.226 306.164 C 98.226 306.331,98.730 306.766,99.346 307.130 C 99.963 307.494,100.467 307.730,100.467 307.654 C 100.467 307.579,99.963 307.144,99.346 306.688 C 98.730 306.233,98.226 305.997,98.226 306.164 M114.918 306.828 C 114.342 307.335,114.019 307.750,114.200 307.750 C 114.381 307.750,114.924 307.330,115.406 306.816 C 116.522 305.628,116.276 305.634,114.918 306.828 M101.214 308.060 C 101.522 308.251,102.194 308.519,102.708 308.656 C 103.357 308.830,103.471 308.800,103.081 308.560 C 102.773 308.369,102.101 308.101,101.587 307.964 C 100.938 307.790,100.824 307.820,101.214 308.060 M237.722 308.324 C 236.243 308.836,236.241 308.839,237.535 308.626 C 238.254 308.508,239.094 308.267,239.402 308.092 C 240.225 307.623,239.430 307.733,237.722 308.324 M105.986 309.144 C 106.864 309.223,108.209 309.222,108.973 309.142 C 109.738 309.061,109.020 308.997,107.376 308.998 C 105.733 309.000,105.107 309.065,105.986 309.144 M226.252 310.831 C 226.432 314.118,226.600 314.429,226.653 311.578 C 226.681 310.089,226.578 308.870,226.424 308.870 C 226.270 308.870,226.192 309.752,226.252 310.831 M232.429 311.298 C 232.430 312.736,232.498 313.278,232.579 312.503 C 232.660 311.728,232.658 310.552,232.576 309.889 C 232.493 309.226,232.427 309.860,232.429 311.298 M235.449 309.379 C 235.342 309.659,235.307 310.877,235.373 312.087 L 235.492 314.286 235.673 311.577 C 235.855 308.859,235.812 308.434,235.449 309.379 M229.441 311.671 C 229.443 313.109,229.510 313.652,229.591 312.877 C 229.672 312.102,229.670 310.925,229.588 310.262 C 229.505 309.599,229.439 310.233,229.441 311.671 " stroke="none" fill="#043aa0" fill-rule="evenodd"></path><path id="path4" d="M197.483 86.539 C 197.948 86.628,198.620 86.625,198.977 86.531 C 199.334 86.438,198.954 86.365,198.133 86.369 C 197.311 86.373,197.019 86.449,197.483 86.539 M209.061 86.539 C 209.526 86.628,210.198 86.625,210.555 86.531 C 210.912 86.438,210.532 86.365,209.711 86.369 C 208.889 86.373,208.597 86.449,209.061 86.539 M194.495 86.912 C 194.960 87.001,195.632 86.998,195.989 86.905 C 196.346 86.811,195.966 86.738,195.145 86.742 C 194.323 86.746,194.031 86.823,194.495 86.912 M212.049 86.912 C 212.514 87.001,213.186 86.998,213.543 86.905 C 213.900 86.811,213.520 86.738,212.698 86.742 C 211.877 86.746,211.585 86.823,212.049 86.912 M217.398 87.529 C 217.484 87.603,218.058 87.776,218.674 87.914 C 219.492 88.097,219.643 88.062,219.234 87.786 C 218.730 87.444,217.023 87.206,217.398 87.529 M152.544 105.789 L 151.447 107.003 152.661 105.906 C 153.793 104.883,154.047 104.575,153.758 104.575 C 153.694 104.575,153.148 105.121,152.544 105.789 M258.077 108.870 C 260.020 110.822,261.694 112.418,261.797 112.418 C 261.899 112.418,260.393 110.822,258.450 108.870 C 256.507 106.919,254.833 105.322,254.730 105.322 C 254.627 105.322,256.133 106.919,258.077 108.870 M277.493 141.159 C 277.688 141.841,277.951 142.501,278.077 142.627 C 278.428 142.978,277.819 140.664,277.456 140.268 C 277.281 140.076,277.297 140.477,277.493 141.159 M279.593 149.953 C 279.900 151.327,280.114 151.625,280.106 150.669 C 280.103 150.275,279.930 149.701,279.721 149.393 C 279.445 148.984,279.410 149.135,279.593 149.953 M127.217 153.703 C 127.089 154.036,127.007 154.926,127.034 155.679 C 127.079 156.904,127.113 156.851,127.353 155.182 C 127.640 153.194,127.596 152.715,127.217 153.703 M162.665 156.068 C 162.055 156.199,163.451 156.305,165.765 156.304 C 168.080 156.303,169.587 156.193,169.114 156.060 C 168.023 155.752,164.118 155.757,162.665 156.068 M213.093 156.067 C 212.488 156.196,213.992 156.303,216.433 156.303 C 218.875 156.303,220.378 156.196,219.773 156.067 C 219.169 155.937,217.666 155.831,216.433 155.831 C 215.201 155.831,213.698 155.937,213.093 156.067 M263.887 156.067 C 263.282 156.196,264.785 156.303,267.227 156.303 C 269.669 156.303,271.172 156.196,270.567 156.067 C 269.962 155.937,268.459 155.831,267.227 155.831 C 265.994 155.831,264.491 155.937,263.887 156.067 M280.486 157.765 C 280.486 159.034,280.312 159.859,280.019 159.977 C 279.740 160.089,279.815 160.177,280.205 160.195 C 280.759 160.220,280.859 159.880,280.859 157.983 C 280.859 156.751,280.775 155.742,280.672 155.742 C 280.570 155.742,280.486 156.653,280.486 157.765 M180.129 161.158 C 181.071 161.877,181.960 162.465,182.104 162.465 C 182.249 162.465,181.597 161.877,180.655 161.158 C 179.713 160.439,178.825 159.851,178.680 159.851 C 178.536 159.851,179.188 160.439,180.129 161.158 M149.953 161.916 C 148.492 163.114,148.886 163.106,150.514 161.905 C 151.210 161.391,151.620 160.977,151.426 160.984 C 151.232 160.992,150.570 161.411,149.953 161.916 M139.589 164.969 C 140.051 165.058,140.808 165.058,141.270 164.969 C 141.732 164.880,141.354 164.808,140.430 164.808 C 139.505 164.808,139.127 164.880,139.589 164.969 M190.383 164.969 C 190.845 165.058,191.601 165.058,192.063 164.969 C 192.526 164.880,192.148 164.808,191.223 164.808 C 190.299 164.808,189.921 164.880,190.383 164.969 M240.430 164.969 C 240.892 165.058,241.648 165.058,242.110 164.969 C 242.572 164.880,242.194 164.808,241.270 164.808 C 240.345 164.808,239.967 164.880,240.430 164.969 M280.597 169.561 C 280.597 170.691,280.667 171.153,280.753 170.588 C 280.839 170.023,280.839 169.099,280.753 168.534 C 280.667 167.969,280.597 168.431,280.597 169.561 M126.990 171.273 C 126.993 172.077,127.143 172.969,127.323 173.253 C 127.523 173.569,127.574 173.061,127.454 171.946 C 127.210 169.671,126.982 169.341,126.990 171.273 M140.990 170.682 L 138.375 170.923 140.803 170.952 C 142.138 170.968,143.651 170.846,144.164 170.682 C 145.274 170.326,144.837 170.326,140.990 170.682 M188.422 170.680 C 189.554 170.970,193.721 171.169,193.433 170.920 C 193.347 170.846,191.933 170.698,190.289 170.590 C 188.594 170.479,187.786 170.518,188.422 170.680 M242.204 170.682 L 239.589 170.923 242.017 170.952 C 243.352 170.968,244.865 170.846,245.378 170.682 C 246.488 170.326,246.051 170.326,242.204 170.682 M279.782 175.973 C 279.758 176.316,279.642 176.904,279.524 177.280 C 279.320 177.929,279.331 177.930,279.735 177.299 C 279.970 176.933,280.086 176.345,279.994 175.992 C 279.842 175.414,279.821 175.412,279.782 175.973 M277.871 184.223 C 277.871 184.276,277.706 184.894,277.504 185.598 C 277.302 186.302,277.281 186.721,277.456 186.529 C 277.838 186.112,278.341 184.127,278.065 184.127 C 277.958 184.127,277.871 184.170,277.871 184.223 M258.256 217.834 L 254.528 221.662 258.357 217.934 C 260.462 215.884,262.185 214.161,262.185 214.106 C 262.185 213.836,261.719 214.278,258.256 217.834 M152.381 220.915 C 153.078 221.634,153.732 222.222,153.835 222.222 C 153.937 222.222,153.451 221.634,152.754 220.915 C 152.058 220.196,151.403 219.608,151.301 219.608 C 151.198 219.608,151.684 220.196,152.381 220.915 M155.263 223.351 C 155.924 224.044,156.529 224.536,156.606 224.444 C 156.683 224.352,156.142 223.784,155.404 223.183 L 154.062 222.090 155.263 223.351 M222.969 237.908 C 222.200 238.155,222.167 238.213,222.782 238.239 C 223.193 238.256,223.782 238.108,224.090 237.908 C 224.744 237.486,224.290 237.486,222.969 237.908 M184.158 238.043 C 184.244 238.117,184.818 238.290,185.434 238.428 C 186.252 238.611,186.404 238.576,185.994 238.299 C 185.490 237.958,183.783 237.719,184.158 238.043 M218.114 239.029 C 217.345 239.275,217.312 239.334,217.927 239.359 C 218.338 239.377,218.926 239.228,219.234 239.029 C 219.889 238.606,219.434 238.606,218.114 239.029 M195.518 240.135 C 196.659 240.440,199.692 240.635,199.409 240.386 C 199.323 240.310,198.161 240.155,196.825 240.042 C 195.296 239.912,194.812 239.946,195.518 240.135 M209.897 240.149 L 208.217 240.411 209.711 240.430 C 210.532 240.440,211.625 240.314,212.138 240.149 C 213.318 239.772,212.327 239.772,209.897 240.149 M226.213 274.024 C 226.111 274.188,226.852 274.265,227.860 274.194 L 229.692 274.064 229.692 276.506 C 229.692 277.849,229.818 279.026,229.972 279.122 C 230.126 279.217,230.168 278.093,230.065 276.623 L 229.879 273.950 228.138 273.837 C 227.181 273.775,226.315 273.859,226.213 274.024 M232.134 274.210 C 231.831 275.106,231.742 279.366,232.026 279.366 C 232.180 279.365,232.306 278.189,232.306 276.751 L 232.306 274.136 234.157 274.136 L 236.008 274.136 236.118 276.840 C 236.203 278.924,236.356 279.553,236.788 279.584 C 237.096 279.606,237.145 279.555,236.897 279.470 C 236.616 279.374,236.405 278.309,236.337 276.633 L 236.228 273.950 234.263 273.837 C 232.899 273.758,232.248 273.872,232.134 274.210 M105.353 278.754 C 105.439 278.829,106.601 278.979,107.937 279.087 C 109.362 279.203,110.056 279.157,109.617 278.977 C 108.895 278.681,105.039 278.479,105.353 278.754 M212.830 281.090 C 212.903 282.000,212.858 283.156,212.732 283.660 L 212.502 284.577 205.877 284.679 L 199.253 284.781 199.253 287.955 L 199.253 291.130 204.979 291.233 L 210.705 291.336 210.581 293.924 C 210.513 295.347,210.592 296.376,210.757 296.210 C 210.922 296.045,211.006 294.834,210.944 293.519 L 210.831 291.130 205.135 291.027 L 199.440 290.924 199.440 287.945 L 199.440 284.967 205.963 284.967 C 212.029 284.967,212.512 284.917,212.872 284.245 C 213.316 283.415,213.398 279.869,212.979 279.610 C 212.824 279.514,212.758 280.181,212.830 281.090 M98.681 281.513 C 97.787 282.386,97.773 282.428,98.581 281.798 C 100.175 280.557,100.252 280.486,99.987 280.486 C 99.847 280.486,99.259 280.948,98.681 281.513 M182.633 284.158 C 182.633 284.470,180.802 284.618,176.190 284.678 L 169.748 284.761 176.069 284.874 C 181.941 284.978,183.662 284.752,182.888 283.978 C 182.748 283.837,182.633 283.918,182.633 284.158 M230.719 284.867 C 231.592 284.946,233.021 284.946,233.894 284.867 C 234.767 284.789,234.052 284.724,232.306 284.724 C 230.560 284.724,229.846 284.789,230.719 284.867 M261.792 285.579 C 261.586 286.121,261.486 286.634,261.571 286.719 C 261.656 286.804,261.904 286.360,262.122 285.733 C 262.608 284.340,262.315 284.204,261.792 285.579 M244.071 287.395 C 244.071 288.691,244.194 289.557,244.345 289.320 C 244.496 289.083,244.620 288.217,244.620 287.395 C 244.620 286.573,244.496 285.707,244.345 285.470 C 244.194 285.233,244.071 286.099,244.071 287.395 M237.629 288.142 C 237.633 288.964,237.710 289.256,237.799 288.791 C 237.888 288.327,237.885 287.654,237.792 287.297 C 237.698 286.940,237.625 287.320,237.629 288.142 M132.193 291.929 C 131.987 292.471,131.888 292.983,131.973 293.068 C 132.057 293.153,132.305 292.709,132.524 292.083 C 133.009 290.689,132.716 290.553,132.193 291.929 M268.748 292.437 C 268.886 292.951,269.154 293.623,269.344 293.931 C 269.585 294.320,269.614 294.206,269.440 293.557 C 269.303 293.044,269.035 292.372,268.845 292.063 C 268.604 291.674,268.575 291.788,268.748 292.437 M181.135 294.568 C 181.035 296.048,181.087 297.123,181.252 296.957 C 181.416 296.792,181.499 295.581,181.434 294.266 L 181.317 291.877 181.135 294.568 M230.729 296.446 C 231.607 296.525,232.952 296.524,233.717 296.443 C 234.482 296.363,233.763 296.298,232.120 296.300 C 230.476 296.301,229.850 296.367,230.729 296.446 M199.232 300.186 L 199.253 303.828 205.976 304.015 L 212.698 304.202 212.698 306.688 C 212.698 308.055,212.824 309.096,212.979 309.000 C 213.438 308.715,213.296 304.575,212.810 304.090 C 212.496 303.776,210.431 303.641,205.915 303.641 L 199.467 303.641 199.339 300.093 L 199.210 296.544 199.232 300.186 M97.022 299.434 C 97.900 299.513,99.245 299.511,100.010 299.431 C 100.775 299.351,100.056 299.286,98.413 299.288 C 96.769 299.289,96.144 299.355,97.022 299.434 M118.115 301.214 C 118.119 302.035,118.195 302.328,118.285 301.863 C 118.374 301.398,118.371 300.726,118.277 300.369 C 118.184 300.012,118.111 300.392,118.115 301.214 M230.532 303.914 C 231.303 303.994,232.563 303.994,233.333 303.914 C 234.104 303.833,233.473 303.767,231.933 303.767 C 230.392 303.767,229.762 303.833,230.532 303.914 M254.696 304.627 C 254.489 305.169,254.390 305.682,254.475 305.766 C 254.560 305.851,254.808 305.408,255.026 304.781 C 255.512 303.388,255.219 303.251,254.696 304.627 M106.727 304.279 C 107.192 304.368,107.864 304.365,108.221 304.272 C 108.578 304.178,108.198 304.105,107.376 304.109 C 106.555 304.113,106.262 304.190,106.727 304.279 M260.380 308.104 C 260.162 308.731,260.062 309.244,260.159 309.244 C 260.412 309.244,261.116 307.304,260.931 307.119 C 260.847 307.034,260.599 307.477,260.380 308.104 M237.162 308.829 C 236.302 309.067,236.213 309.299,236.041 311.745 C 235.938 313.207,235.980 314.325,236.134 314.229 C 236.289 314.133,236.415 312.972,236.415 311.649 C 236.415 309.609,236.514 309.243,237.068 309.238 C 237.428 309.235,237.974 309.069,238.282 308.870 C 238.913 308.462,238.539 308.449,237.162 308.829 M229.817 311.858 C 229.817 313.399,229.883 314.029,229.964 313.259 C 230.045 312.488,230.045 311.228,229.964 310.458 C 229.883 309.687,229.817 310.317,229.817 311.858 M231.984 311.765 C 231.956 313.254,232.059 314.473,232.213 314.473 C 232.367 314.473,232.444 313.590,232.385 312.512 C 232.204 309.224,232.037 308.913,231.984 311.765 " stroke="none" fill="#041132" fill-rule="evenodd"></path></g></svg>